<?xml version="1.0" encoding="utf-8"?>
<!-- Generator: Adobe Illustrator 22.1.0, SVG Export Plug-In . SVG Version: 6.00 Build 0)  -->
<svg version="1.1" id="Layer_1" xmlns="http://www.w3.org/2000/svg" xmlns:xlink="http://www.w3.org/1999/xlink" x="0px" y="0px"
	 viewBox="0 0 200 200" style="enable-background:new 0 0 200 200;" xml:space="preserve">
<style type="text/css">
	.st0{fill:#849894;}
	.st1{fill:#607875;}
	.st2{fill:#CA9A8E;}
</style>
<path class="st0" d="M132.4,20.8c3.6,6,5.7,13,5.7,20.5c0,0.2,0,0.3-0.1,0.5c-9.8,4.4-16.6,14.2-16.6,25.7c0,1.9,0.2,3.7,0.6,5.5
	c-6.4,4.7-14.3,7.6-22.9,7.6c-7.6,0-14.5-2.3-20.5-6c2.2-3.3,3.4-7.2,3.4-11.4c0-11.3-9.1-20.5-20.3-20.5c-0.5,0-1,0.1-1.5,0.2
	c0-0.5-0.2-1.1-0.2-1.6c0-7.5,2.1-14.5,5.7-20.5c0.8-1.3,1.6-2.5,2.5-3.7C75.5,7.9,86.6,1.9,99.1,1.9c12.5,0,23.6,6,30.8,15.2
	C130.8,18.3,131.6,19.5,132.4,20.8 M60.3,42.9c-10.5,0.8-18.8,9.5-18.8,20.3c0,11.3,9.1,20.5,20.3,20.5c7,0,13.2-3.6,16.8-9.1
	C68,68,60.8,56.4,60.3,42.9"/>
<path class="st1" d="M61.7,42.8C72.9,42.8,82,52,82,63.3c0,4.2-1.3,8.2-3.4,11.4C68,68,60.8,56.4,60.3,42.9
	C60.8,42.9,61.2,42.8,61.7,42.8 M121.4,67.5c0,1.9,0.2,3.8,0.6,5.5c9.6-7.1,15.9-18.4,16.1-31.3C128.2,46.2,121.4,56.1,121.4,67.5"
	/>
<path class="st2" d="M121.9,73.1c9.6-7.1,15.9-18.4,16.1-31.3c3.4-1.5,7.2-2.4,11.2-2.4c15.4,0,27.8,12.6,27.8,28.1
	c0,15.5-12.5,28.1-27.8,28.1C135.7,95.7,124.5,86,121.9,73.1 M39.3,0c-8.8,0-15.9,7.2-15.9,16.1c0,0.3,0,0.7,0,1
	c0.1,1.3,0.3,2.5,0.7,3.7c2,6.6,8.1,11.4,15.2,11.4c7.2,0,13.3-4.8,15.2-11.4c0.4-1.2,0.6-2.4,0.7-3.7c0-0.3,0-0.7,0-1
	C55.2,7.2,48.1,0,39.3,0 M191.2,65.3c-0.6-0.1-1.2-0.2-1.8-0.2c-0.6,0-1.2,0.1-1.8,0.2c-5,0.9-8.8,5.3-8.8,10.6
	c0,5.3,3.8,9.7,8.8,10.6c0.6,0.1,1.2,0.2,1.8,0.2c0.6,0,1.2-0.1,1.8-0.2c5-0.9,8.8-5.3,8.8-10.6C200,70.6,196.2,66.2,191.2,65.3"/>
<path d="M42.3,146.5h3.9v28l-16.5-19.9v17.2h-3.9v-28l16.5,19.9V146.5z M73.4,162.4c0,3.8-2.9,6-5.7,6c-3.7,0-5.9-3-5.9-5.8v-16
	h-3.9v16.1c0,4.8,3.7,9.7,9.8,9.7c4.7,0,9.6-3.7,9.6-9.9v-15.9h-3.9V162.4z M101.5,159.7l-2.9-6.2l-2.8,6.2H101.5z M98.7,144.3
	l12.3,26.6l-3.5,1.7l-4.1-8.9H94l-4.1,8.9l-3.5-1.7L98.7,144.3z M131,149.8c2.6,0,5,1,6.7,2.7l0.8,0.8l2.7-2.8l-0.8-0.8
	c-2.5-2.5-5.8-3.9-9.4-3.9c-7.3,0-13,5.9-13,13.3c0,7.4,5.8,13.2,13.2,13.2c3.4,0,6.7-1.4,9.1-3.8l0.3-0.3v-8.5h-10.6v3.9h6.7v2.9
	c-1.6,1.2-3.6,2-5.6,2c-5.2,0-9.3-4.1-9.3-9.3C121.9,154,126,149.8,131,149.8 M155.5,167.9v-7.4h6.9v-3.9h-6.9v-6.1h8.7v-3.9h-12.5
	v25.3h13.7v-3.9H155.5z M55.2,17.1c-0.1,1.3-0.3,2.5-0.7,3.7h11.3c0.8-1.3,1.6-2.5,2.5-3.7H55.2z M191.2,65.3V17.1h-61.3
	c0.9,1.2,1.8,2.4,2.5,3.7h55.1v44.5c0.6-0.1,1.2-0.2,1.8-0.2C190,65.1,190.6,65.2,191.2,65.3 M0,17.1v178.8h48.7v-3.7h-45V20.8H24
	c-0.4-1.2-0.6-2.4-0.7-3.7H0z M187.5,86.5v105.6h-45.3v3.7h49V86.5c-0.6,0.1-1.2,0.2-1.8,0.2C188.7,86.7,188.1,86.6,187.5,86.5
	 M64.4,186.6c1.3,0,2.3,0.8,2.9,2.3l0.1,0.2l1-0.4l-0.1-0.2c-0.7-1.9-2.2-2.9-3.9-2.9c-2.7,0-4.5,2.4-4.5,5.8c0,3.4,1.8,5.8,4.5,5.8
	c1.6,0,2.9-0.8,3.7-2.3l0.1-0.2l-1-0.4l-0.1,0.2c-0.6,1.1-1.5,1.8-2.7,1.8c-2,0-3.3-1.9-3.3-4.7C61,188.6,62.4,186.6,64.4,186.6
	 M73.1,197h1.1v-11.2h-1.1V197z M80.1,185.6c-0.4,0-0.8,0.3-0.8,0.8c0,0.4,0.3,0.8,0.8,0.8c0.4,0,0.8-0.4,0.8-0.8
	C80.9,186,80.5,185.6,80.1,185.6 M79.6,197h1.1v-8.1h-1.1V197z M89.1,188.7c-0.8,0-1.5,0.3-2.1,0.8v-0.6h-1.1v8.1H87v-4.9
	c0-1.6,1-2.3,2-2.3c1.1,0,1.7,0.8,1.7,2.2v5h1.1v-4.9C91.8,190,90.8,188.7,89.1,188.7 M97.5,185.6c-0.4,0-0.8,0.3-0.8,0.8
	c0,0.4,0.3,0.8,0.8,0.8c0.4,0,0.8-0.4,0.8-0.8C98.3,186,98,185.6,97.5,185.6 M97,197h1.1v-8.1H97V197z M108.1,191.6
	c-0.4-1.2-1.2-1.9-2-1.9c-1.1,0-2,1.4-2,3.2c0,1.8,0.8,3.2,1.9,3.2c1,0,1.8-0.9,2.1-2.3L108.1,191.6 M108.1,188.9h1.1V200h-1.1v-3.9
	c-0.6,0.7-1.3,1-2.2,1c-1.7,0-3-1.8-3-4.2c0-2.4,1.3-4.3,3-4.3c0.9,0,1.6,0.3,2.1,0.9V188.9z M119,193.8c0,1.6-1,2.3-2,2.3
	c-1.1,0-1.7-0.8-1.7-2.2v-5h-1.1v4.9c0,2.1,1,3.4,2.7,3.4c0.8,0,1.5-0.3,2.1-0.8v0.6h1.1v-8.1H119V193.8z M130.2,192.3
	c-0.2-1.6-1-2.6-2-2.6c-1.1,0-1.9,1-2.1,2.6H130.2z M131.3,193.3H126c0.1,1.7,1,2.9,2.2,2.9c0.8,0,1.5-0.4,1.9-1.1l0.1-0.2l0.9,0.6
	l-0.1,0.2c-0.6,1-1.6,1.5-2.8,1.5c-2,0-3.3-1.7-3.3-4.3c0-2.5,1.3-4.2,3.2-4.2c1.9,0,3.2,1.7,3.2,4.2V193.3z"/>
</svg>
